REM DIRINDEX 1\2\3,1\2\4,1\2\5,1\2\6
REM DIRNAME cjc157,folder01,folder02,folder03,folder04,folder05
TITLE ""
FILE "074 074.mp3" MP3
  TRACK 01 AUDIO
    TITLE "0:"
    INDEX 01 00:00:00
  TRACK 02 AUDIO
    TITLE "3:cjc157_2768"
    INDEX 01 00:00:15
  TRACK 03 AUDIO
    TITLE "0:"
    INDEX 01 00:01:13
  TRACK 04 AUDIO
    TITLE "4:cjc157_2769"
    INDEX 01 00:01:60
  TRACK 05 AUDIO
    TITLE "0:"
    INDEX 01 00:03:02
  TRACK 06 AUDIO
    TITLE "5:cjc157_2770"
    INDEX 01 00:03:49
  TRACK 07 AUDIO
    TITLE "0:"
    INDEX 01 00:06:65
  TRACK 08 AUDIO
    TITLE "5:cjc157_2771"
    INDEX 01 00:07:35
  TRACK 09 AUDIO
    TITLE "0:"
    INDEX 01 00:10:04
  TRACK 10 AUDIO
    TITLE "3:cjc157_2772"
    INDEX 01 00:10:53
  TRACK 11 AUDIO
    TITLE "0:"
    INDEX 01 00:11:66
  TRACK 12 AUDIO
    TITLE "4:cjc157_2773"
    INDEX 01 00:12:42
  TRACK 13 AUDIO
    TITLE "0:"
    INDEX 01 00:13:71
  TRACK 14 AUDIO
    TITLE "5:cjc157_2774"
    INDEX 01 00:14:41
  TRACK 15 AUDIO
    TITLE "0:"
    INDEX 01 00:16:32
  TRACK 16 AUDIO
    TITLE "5:cjc157_2775"
    INDEX 01 00:17:06
  TRACK 17 AUDIO
    TITLE "0:"
    INDEX 01 00:19:11
  TRACK 18 AUDIO
    TITLE "3:cjc157_2776"
    INDEX 01 00:19:54
  TRACK 19 AUDIO
    TITLE "0:"
    INDEX 01 00:20:65
  TRACK 20 AUDIO
    TITLE "4:cjc157_2777"
    INDEX 01 00:21:39
  TRACK 21 AUDIO
    TITLE "0:"
    INDEX 01 00:22:52
  TRACK 22 AUDIO
    TITLE "5:cjc157_2778"
    INDEX 01 00:23:24
  TRACK 23 AUDIO
    TITLE "0:"
    INDEX 01 00:25:74
  TRACK 24 AUDIO
    TITLE "3:cjc157_2779"
    INDEX 01 00:26:48
  TRACK 25 AUDIO
    TITLE "0:"
    INDEX 01 00:27:71
  TRACK 26 AUDIO
    TITLE "4:cjc157_2780"
    INDEX 01 00:28:41
  TRACK 27 AUDIO
    TITLE "0:"
    INDEX 01 00:29:56
  TRACK 28 AUDIO
    TITLE "5:cjc157_2781"
    INDEX 01 00:30:26
  TRACK 29 AUDIO
    TITLE "0:"
    INDEX 01 00:32:41
  TRACK 30 AUDIO
    TITLE "3:cjc157_2782"
    INDEX 01 00:33:15
  TRACK 31 AUDIO
    TITLE "0:"
    INDEX 01 00:34:16
  TRACK 32 AUDIO
    TITLE "4:cjc157_2783"
    INDEX 01 00:34:61
  TRACK 33 AUDIO
    TITLE "0:"
    INDEX 01 00:36:11
  TRACK 34 AUDIO
    TITLE "5:cjc157_2784"
    INDEX 01 00:36:58
  TRACK 35 AUDIO
    TITLE "0:"
    INDEX 01 00:39:00
  TRACK 36 AUDIO
    TITLE "5:cjc157_2785"
    INDEX 01 00:39:43
  TRACK 37 AUDIO
    TITLE "0:"
    INDEX 01 00:41:18
  TRACK 38 AUDIO
    TITLE "3:cjc157_2786"
    INDEX 01 00:41:65
  TRACK 39 AUDIO
    TITLE "0:"
    INDEX 01 00:43:07
  TRACK 40 AUDIO
    TITLE "4:cjc157_2787"
    INDEX 01 00:43:52
  TRACK 41 AUDIO
    TITLE "0:"
    INDEX 01 00:44:60
  TRACK 42 AUDIO
    TITLE "5:cjc157_2788"
    INDEX 01 00:45:32
  TRACK 43 AUDIO
    TITLE "0:"
    INDEX 01 00:48:24
  TRACK 44 AUDIO
    TITLE "5:cjc157_2789"
    INDEX 01 00:48:67
  TRACK 45 AUDIO
    TITLE "0:"
    INDEX 01 00:53:00
  TRACK 46 AUDIO
    TITLE "5:cjc157_2790"
    INDEX 01 00:53:47
  TRACK 47 AUDIO
    TITLE "0:"
    INDEX 01 00:55:71
  TRACK 48 AUDIO
    TITLE "3:cjc157_2791"
    INDEX 01 00:56:43
  TRACK 49 AUDIO
    TITLE "0:"
    INDEX 01 00:57:41
  TRACK 50 AUDIO
    TITLE "4:cjc157_2792"
    INDEX 01 00:58:07
  TRACK 51 AUDIO
    TITLE "0:"
    INDEX 01 00:59:34
  TRACK 52 AUDIO
    TITLE "5:cjc157_2793"
    INDEX 01 01:00:02
  TRACK 53 AUDIO
    TITLE "0:"
    INDEX 01 01:01:64
  TRACK 54 AUDIO
    TITLE "5:cjc157_2794"
    INDEX 01 01:02:36
  TRACK 55 AUDIO
    TITLE "0:"
    INDEX 01 01:04:29
  TRACK 56 AUDIO
    TITLE "3:cjc157_2795"
    INDEX 01 01:04:74
  TRACK 57 AUDIO
    TITLE "0:"
    INDEX 01 01:06:12
  TRACK 58 AUDIO
    TITLE "4:cjc157_2796"
    INDEX 01 01:06:55
  TRACK 59 AUDIO
    TITLE "0:"
    INDEX 01 01:07:68
  TRACK 60 AUDIO
    TITLE "5:cjc157_2797"
    INDEX 01 01:08:38
  TRACK 61 AUDIO
    TITLE "0:"
    INDEX 01 01:10:31
  TRACK 62 AUDIO
    TITLE "5:cjc157_2798"
    INDEX 01 01:11:00
  TRACK 63 AUDIO
    TITLE "0:"
    INDEX 01 01:12:64
  TRACK 64 AUDIO
    TITLE "3:cjc157_2799"
    INDEX 01 01:13:36
  TRACK 65 AUDIO
    TITLE "0:"
    INDEX 01 01:14:59
  TRACK 66 AUDIO
    TITLE "4:cjc157_2800"
    INDEX 01 01:15:31
  TRACK 67 AUDIO
    TITLE "0:"
    INDEX 01 01:16:52
  TRACK 68 AUDIO
    TITLE "5:cjc157_2801"
    INDEX 01 01:17:22
  TRACK 69 AUDIO
    TITLE "0:"
    INDEX 01 01:19:28
  TRACK 70 AUDIO
    TITLE "5:cjc157_2802"
    INDEX 01 01:20:00
  TRACK 71 AUDIO
    TITLE "0:"
    INDEX 01 01:22:48
  TRACK 72 AUDIO
    TITLE "5:cjc157_2803"
    INDEX 01 01:23:18
  TRACK 73 AUDIO
    TITLE "0:"
    INDEX 01 01:24:63
  TRACK 74 AUDIO
    TITLE "5:cjc157_2804"
    INDEX 01 01:25:33
  TRACK 75 AUDIO
    TITLE "0:"
    INDEX 01 01:28:35
  TRACK 76 AUDIO
    TITLE "3:cjc157_2805"
    INDEX 01 01:29:09
  TRACK 77 AUDIO
    TITLE "0:"
    INDEX 01 01:30:38
  TRACK 78 AUDIO
    TITLE "4:cjc157_2806"
    INDEX 01 01:31:10
  TRACK 79 AUDIO
    TITLE "0:"
    INDEX 01 01:32:47
  TRACK 80 AUDIO
    TITLE "5:cjc157_2807"
    INDEX 01 01:33:17
  TRACK 81 AUDIO
    TITLE "0:"
    INDEX 01 01:35:55
  TRACK 82 AUDIO
    TITLE "5:cjc157_2808"
    INDEX 01 01:36:21
  TRACK 83 AUDIO
    TITLE "0:"
    INDEX 01 01:38:55
